<mxfile host="app.diagrams.net" modified="2020-11-22T10:49:25.902Z" agent="5.0 (Windows NT 10.0; Win64; x64) AppleWebKit/537.36 (KHTML, like Gecko) Chrome/87.0.4280.66 Safari/537.36 Edg/87.0.664.41" etag="cHs6JPFtSvGH27XNVDLi" version="13.10.0" type="github">
  <diagram id="lP1IpXQQeITOPNULEuL5" name="Page-1">
    <mxGraphModel dx="1635" dy="2071" grid="1" gridSize="10" guides="1" tooltips="1" connect="1" arrows="1" fold="1" page="1" pageScale="1" pageWidth="827" pageHeight="1169" math="0" shadow="0">
      <root>
        <mxCell id="0" />
        <mxCell id="1" parent="0" />
        <mxCell id="RbZct2MoRm9yDM0AL2yS-1" style="rounded=0;orthogonalLoop=1;jettySize=auto;html=1;entryX=0.5;entryY=0;entryDx=0;entryDy=0;endArrow=none;endFill=0;" parent="1" source="RbZct2MoRm9yDM0AL2yS-3" target="RbZct2MoRm9yDM0AL2yS-11" edge="1">
          <mxGeometry relative="1" as="geometry">
            <mxPoint x="410" y="135" as="targetPoint" />
          </mxGeometry>
        </mxCell>
        <mxCell id="RbZct2MoRm9yDM0AL2yS-2" style="edgeStyle=none;rounded=0;orthogonalLoop=1;jettySize=auto;html=1;entryX=0;entryY=0.5;entryDx=0;entryDy=0;endArrow=none;endFill=0;" parent="1" source="RbZct2MoRm9yDM0AL2yS-3" target="RbZct2MoRm9yDM0AL2yS-19" edge="1">
          <mxGeometry relative="1" as="geometry" />
        </mxCell>
        <mxCell id="RbZct2MoRm9yDM0AL2yS-3" value="Nhân viên" style="shape=umlActor;verticalLabelPosition=bottom;verticalAlign=top;html=1;outlineConnect=0;" parent="1" vertex="1">
          <mxGeometry x="110" y="160" width="40" height="100" as="geometry" />
        </mxCell>
        <mxCell id="RbZct2MoRm9yDM0AL2yS-4" style="edgeStyle=none;rounded=0;orthogonalLoop=1;jettySize=auto;html=1;entryX=0.999;entryY=0.264;entryDx=0;entryDy=0;entryPerimeter=0;endArrow=none;endFill=0;" parent="1" source="RbZct2MoRm9yDM0AL2yS-10" target="RbZct2MoRm9yDM0AL2yS-13" edge="1">
          <mxGeometry relative="1" as="geometry" />
        </mxCell>
        <mxCell id="RbZct2MoRm9yDM0AL2yS-5" style="edgeStyle=none;rounded=0;orthogonalLoop=1;jettySize=auto;html=1;entryX=1.008;entryY=0.304;entryDx=0;entryDy=0;entryPerimeter=0;endArrow=none;endFill=0;" parent="1" source="RbZct2MoRm9yDM0AL2yS-10" target="RbZct2MoRm9yDM0AL2yS-14" edge="1">
          <mxGeometry relative="1" as="geometry" />
        </mxCell>
        <mxCell id="RbZct2MoRm9yDM0AL2yS-6" style="edgeStyle=none;rounded=0;orthogonalLoop=1;jettySize=auto;html=1;entryX=1;entryY=0;entryDx=0;entryDy=0;endArrow=none;endFill=0;" parent="1" source="RbZct2MoRm9yDM0AL2yS-10" target="RbZct2MoRm9yDM0AL2yS-20" edge="1">
          <mxGeometry relative="1" as="geometry" />
        </mxCell>
        <mxCell id="RbZct2MoRm9yDM0AL2yS-7" style="edgeStyle=none;rounded=0;orthogonalLoop=1;jettySize=auto;html=1;entryX=1;entryY=0;entryDx=0;entryDy=0;endArrow=none;endFill=0;" parent="1" source="RbZct2MoRm9yDM0AL2yS-10" target="RbZct2MoRm9yDM0AL2yS-18" edge="1">
          <mxGeometry relative="1" as="geometry" />
        </mxCell>
        <mxCell id="RbZct2MoRm9yDM0AL2yS-8" style="edgeStyle=none;rounded=0;orthogonalLoop=1;jettySize=auto;html=1;entryX=1.008;entryY=0.618;entryDx=0;entryDy=0;entryPerimeter=0;endArrow=none;endFill=0;" parent="1" source="RbZct2MoRm9yDM0AL2yS-10" target="RbZct2MoRm9yDM0AL2yS-17" edge="1">
          <mxGeometry relative="1" as="geometry" />
        </mxCell>
        <mxCell id="RbZct2MoRm9yDM0AL2yS-9" style="edgeStyle=none;rounded=0;orthogonalLoop=1;jettySize=auto;html=1;entryX=1;entryY=0.5;entryDx=0;entryDy=0;endArrow=none;endFill=0;" parent="1" source="RbZct2MoRm9yDM0AL2yS-10" target="RbZct2MoRm9yDM0AL2yS-15" edge="1">
          <mxGeometry relative="1" as="geometry" />
        </mxCell>
        <mxCell id="RbZct2MoRm9yDM0AL2yS-10" value="Quản lý" style="shape=umlActor;verticalLabelPosition=bottom;verticalAlign=top;html=1;outlineConnect=0;" parent="1" vertex="1">
          <mxGeometry x="980" y="130" width="40" height="110" as="geometry" />
        </mxCell>
        <mxCell id="RbZct2MoRm9yDM0AL2yS-11" value="BÁN HÀNG" style="ellipse;whiteSpace=wrap;html=1;" parent="1" vertex="1">
          <mxGeometry x="280" y="480" width="120" height="80" as="geometry" />
        </mxCell>
        <mxCell id="RbZct2MoRm9yDM0AL2yS-12" style="edgeStyle=none;rounded=0;orthogonalLoop=1;jettySize=auto;html=1;dashed=1;entryX=0.416;entryY=1.013;entryDx=0;entryDy=0;entryPerimeter=0;" parent="1" source="RbZct2MoRm9yDM0AL2yS-13" target="RbZct2MoRm9yDM0AL2yS-16" edge="1">
          <mxGeometry relative="1" as="geometry" />
        </mxCell>
        <mxCell id="RbZct2MoRm9yDM0AL2yS-13" value="QUẢN LÝ NHÂN VIÊN" style="ellipse;whiteSpace=wrap;html=1;" parent="1" vertex="1">
          <mxGeometry x="540" y="500" width="120" height="80" as="geometry" />
        </mxCell>
        <mxCell id="RbZct2MoRm9yDM0AL2yS-14" value="QUẢN LÝ KHO" style="ellipse;whiteSpace=wrap;html=1;" parent="1" vertex="1">
          <mxGeometry x="720" y="105" width="120" height="80" as="geometry" />
        </mxCell>
        <mxCell id="RbZct2MoRm9yDM0AL2yS-15" value="THỐNG KÊ" style="ellipse;whiteSpace=wrap;html=1;" parent="1" vertex="1">
          <mxGeometry x="660" y="-20" width="120" height="80" as="geometry" />
        </mxCell>
        <mxCell id="RbZct2MoRm9yDM0AL2yS-16" value="ĐĂNG NHẬP" style="ellipse;whiteSpace=wrap;html=1;" parent="1" vertex="1">
          <mxGeometry x="440" y="185" width="120" height="80" as="geometry" />
        </mxCell>
        <mxCell id="RbZct2MoRm9yDM0AL2yS-17" value="QL DANH MỤC" style="ellipse;whiteSpace=wrap;html=1;" parent="1" vertex="1">
          <mxGeometry x="670" y="-130" width="120" height="80" as="geometry" />
        </mxCell>
        <mxCell id="RbZct2MoRm9yDM0AL2yS-18" value="KIỂM TRA NHẬP HÀNG" style="ellipse;whiteSpace=wrap;html=1;" parent="1" vertex="1">
          <mxGeometry x="640" y="340" width="120" height="80" as="geometry" />
        </mxCell>
        <mxCell id="RbZct2MoRm9yDM0AL2yS-19" value="QL KHÁCH HÀNG" style="ellipse;whiteSpace=wrap;html=1;" parent="1" vertex="1">
          <mxGeometry x="650" y="-270" width="120" height="80" as="geometry" />
        </mxCell>
        <mxCell id="RbZct2MoRm9yDM0AL2yS-20" value="CÔNG NỢ" style="ellipse;whiteSpace=wrap;html=1;" parent="1" vertex="1">
          <mxGeometry x="660" y="230" width="120" height="80" as="geometry" />
        </mxCell>
        <mxCell id="RbZct2MoRm9yDM0AL2yS-21" style="edgeStyle=none;rounded=0;orthogonalLoop=1;jettySize=auto;html=1;dashed=1;entryX=0.675;entryY=0.972;entryDx=0;entryDy=0;entryPerimeter=0;" parent="1" source="RbZct2MoRm9yDM0AL2yS-20" target="RbZct2MoRm9yDM0AL2yS-16" edge="1">
          <mxGeometry relative="1" as="geometry">
            <mxPoint x="640.0018930256605" y="288.12656538000203" as="sourcePoint" />
            <mxPoint x="525.4937343748614" y="329.9959147727776" as="targetPoint" />
          </mxGeometry>
        </mxCell>
        <mxCell id="RbZct2MoRm9yDM0AL2yS-22" style="edgeStyle=none;rounded=0;orthogonalLoop=1;jettySize=auto;html=1;dashed=1;entryX=0.5;entryY=1;entryDx=0;entryDy=0;" parent="1" source="RbZct2MoRm9yDM0AL2yS-18" target="RbZct2MoRm9yDM0AL2yS-16" edge="1">
          <mxGeometry relative="1" as="geometry">
            <mxPoint x="607.5118930256605" y="409.99656538000204" as="sourcePoint" />
            <mxPoint x="493.0037343748614" y="451.8659147727776" as="targetPoint" />
          </mxGeometry>
        </mxCell>
        <mxCell id="RbZct2MoRm9yDM0AL2yS-24" style="edgeStyle=none;rounded=0;orthogonalLoop=1;jettySize=auto;html=1;dashed=1;" parent="1" source="RbZct2MoRm9yDM0AL2yS-15" target="RbZct2MoRm9yDM0AL2yS-16" edge="1">
          <mxGeometry relative="1" as="geometry">
            <mxPoint x="693.5625620478036" y="379.67048838971095" as="sourcePoint" />
            <mxPoint x="520" y="285" as="targetPoint" />
          </mxGeometry>
        </mxCell>
        <mxCell id="RbZct2MoRm9yDM0AL2yS-25" style="edgeStyle=none;rounded=0;orthogonalLoop=1;jettySize=auto;html=1;dashed=1;entryX=0.5;entryY=0;entryDx=0;entryDy=0;exitX=-0.029;exitY=0.59;exitDx=0;exitDy=0;exitPerimeter=0;" parent="1" source="RbZct2MoRm9yDM0AL2yS-17" target="RbZct2MoRm9yDM0AL2yS-16" edge="1">
          <mxGeometry relative="1" as="geometry">
            <mxPoint x="703.5625620478036" y="389.67048838971095" as="sourcePoint" />
            <mxPoint x="530" y="295" as="targetPoint" />
          </mxGeometry>
        </mxCell>
        <mxCell id="RbZct2MoRm9yDM0AL2yS-26" style="edgeStyle=none;rounded=0;orthogonalLoop=1;jettySize=auto;html=1;dashed=1;exitX=1;exitY=0;exitDx=0;exitDy=0;entryX=0;entryY=1;entryDx=0;entryDy=0;" parent="1" source="RbZct2MoRm9yDM0AL2yS-11" target="RbZct2MoRm9yDM0AL2yS-16" edge="1">
          <mxGeometry relative="1" as="geometry">
            <mxPoint x="477.57359312880726" y="501.7157287525383" as="sourcePoint" />
            <mxPoint x="320" y="230" as="targetPoint" />
            <Array as="points">
              <mxPoint x="420" y="370" />
            </Array>
          </mxGeometry>
        </mxCell>
        <mxCell id="RbZct2MoRm9yDM0AL2yS-27" value="&amp;lt;include&amp;gt;" style="edgeLabel;html=1;align=center;verticalAlign=middle;resizable=0;points=[];fontSize=15;" parent="RbZct2MoRm9yDM0AL2yS-26" vertex="1" connectable="0">
          <mxGeometry x="-0.0802" y="-1" relative="1" as="geometry">
            <mxPoint as="offset" />
          </mxGeometry>
        </mxCell>
        <mxCell id="RbZct2MoRm9yDM0AL2yS-28" style="edgeStyle=none;rounded=0;orthogonalLoop=1;jettySize=auto;html=1;dashed=1;exitX=0;exitY=1;exitDx=0;exitDy=0;entryX=0;entryY=0;entryDx=0;entryDy=0;" parent="1" source="RbZct2MoRm9yDM0AL2yS-19" target="RbZct2MoRm9yDM0AL2yS-16" edge="1">
          <mxGeometry relative="1" as="geometry">
            <mxPoint x="677.5735931288073" y="561.7157287525383" as="sourcePoint" />
            <mxPoint x="520" y="290" as="targetPoint" />
          </mxGeometry>
        </mxCell>
        <mxCell id="RbZct2MoRm9yDM0AL2yS-29" value="&amp;lt;include&amp;gt;" style="edgeLabel;html=1;align=center;verticalAlign=middle;resizable=0;points=[];fontSize=15;" parent="1" vertex="1" connectable="0">
          <mxGeometry x="570.0028822453808" y="379.9972646448879" as="geometry" />
        </mxCell>
        <mxCell id="RbZct2MoRm9yDM0AL2yS-30" value="&amp;lt;include&amp;gt;" style="edgeLabel;html=1;align=center;verticalAlign=middle;resizable=0;points=[];fontSize=15;" parent="1" vertex="1" connectable="0">
          <mxGeometry x="450.0028822453807" y="399.9972646448879" as="geometry">
            <mxPoint x="169" y="-64" as="offset" />
          </mxGeometry>
        </mxCell>
        <mxCell id="RbZct2MoRm9yDM0AL2yS-31" value="&amp;lt;include&amp;gt;" style="edgeLabel;html=1;align=center;verticalAlign=middle;resizable=0;points=[];fontSize=15;" parent="1" vertex="1" connectable="0">
          <mxGeometry x="430.0028822453807" y="389.9972646448879" as="geometry">
            <mxPoint x="176" y="-124" as="offset" />
          </mxGeometry>
        </mxCell>
        <mxCell id="RbZct2MoRm9yDM0AL2yS-32" value="&amp;lt;include&amp;gt;" style="edgeLabel;html=1;align=center;verticalAlign=middle;resizable=0;points=[];fontSize=15;" parent="1" vertex="1" connectable="0">
          <mxGeometry x="477.3028822453807" y="389.9972646448879" as="geometry">
            <mxPoint x="167" y="-231" as="offset" />
          </mxGeometry>
        </mxCell>
        <mxCell id="RbZct2MoRm9yDM0AL2yS-33" value="&amp;lt;include&amp;gt;" style="edgeLabel;html=1;align=center;verticalAlign=middle;resizable=0;points=[];fontSize=15;" parent="1" vertex="1" connectable="0">
          <mxGeometry x="467.3028822453807" y="432.1272646448879" as="geometry">
            <mxPoint x="145" y="-302" as="offset" />
          </mxGeometry>
        </mxCell>
        <mxCell id="RbZct2MoRm9yDM0AL2yS-34" value="&amp;lt;include&amp;gt;" style="edgeLabel;html=1;align=center;verticalAlign=middle;resizable=0;points=[];fontSize=15;" parent="1" vertex="1" connectable="0">
          <mxGeometry x="477.3028822453807" y="442.1272646448879" as="geometry">
            <mxPoint x="98" y="-382" as="offset" />
          </mxGeometry>
        </mxCell>
        <mxCell id="RbZct2MoRm9yDM0AL2yS-35" value="&amp;lt;include&amp;gt;" style="edgeLabel;html=1;align=center;verticalAlign=middle;resizable=0;points=[];fontSize=15;" parent="1" vertex="1" connectable="0">
          <mxGeometry x="540.0028822453808" y="349.9972646448879" as="geometry">
            <mxPoint x="48" y="-402" as="offset" />
          </mxGeometry>
        </mxCell>
        <mxCell id="RbZct2MoRm9yDM0AL2yS-36" style="rounded=0;orthogonalLoop=1;jettySize=auto;html=1;exitX=0.25;exitY=0.1;exitDx=0;exitDy=0;exitPerimeter=0;endArrow=none;endFill=0;" parent="1" source="RbZct2MoRm9yDM0AL2yS-10" target="RbZct2MoRm9yDM0AL2yS-19" edge="1">
          <mxGeometry relative="1" as="geometry">
            <mxPoint x="980" y="70" as="sourcePoint" />
            <mxPoint x="820" y="-184.13999999999993" as="targetPoint" />
          </mxGeometry>
        </mxCell>
        <mxCell id="RbZct2MoRm9yDM0AL2yS-37" style="edgeStyle=none;rounded=0;orthogonalLoop=1;jettySize=auto;html=1;entryX=0;entryY=0.3333333333333333;entryDx=0;entryDy=0;entryPerimeter=0;dashed=1;fontSize=15;" parent="1" source="RbZct2MoRm9yDM0AL2yS-3" target="RbZct2MoRm9yDM0AL2yS-3" edge="1">
          <mxGeometry relative="1" as="geometry" />
        </mxCell>
        <mxCell id="RbZct2MoRm9yDM0AL2yS-38" value="" style="strokeWidth=2;html=1;shape=mxgraph.flowchart.annotation_1;align=left;pointerEvents=1;fontSize=15;" parent="1" vertex="1">
          <mxGeometry x="210" y="-300" width="740" height="900" as="geometry" />
        </mxCell>
        <mxCell id="RbZct2MoRm9yDM0AL2yS-39" value="" style="endArrow=none;html=1;fontSize=15;entryX=1;entryY=0;entryDx=0;entryDy=0;entryPerimeter=0;exitX=1;exitY=1;exitDx=0;exitDy=0;exitPerimeter=0;" parent="1" source="RbZct2MoRm9yDM0AL2yS-38" target="RbZct2MoRm9yDM0AL2yS-38" edge="1">
          <mxGeometry width="50" height="50" relative="1" as="geometry">
            <mxPoint x="990" y="-20" as="sourcePoint" />
            <mxPoint x="1040" y="-70" as="targetPoint" />
          </mxGeometry>
        </mxCell>
        <mxCell id="RbZct2MoRm9yDM0AL2yS-46" style="rounded=0;orthogonalLoop=1;jettySize=auto;html=1;entryX=0;entryY=0;entryDx=0;entryDy=0;dashed=1;" parent="1" source="RbZct2MoRm9yDM0AL2yS-41" target="RbZct2MoRm9yDM0AL2yS-16" edge="1">
          <mxGeometry relative="1" as="geometry" />
        </mxCell>
        <mxCell id="RbZct2MoRm9yDM0AL2yS-47" value="&amp;lt;extend&amp;gt;" style="edgeLabel;html=1;align=center;verticalAlign=middle;resizable=0;points=[];fontSize=15;" parent="RbZct2MoRm9yDM0AL2yS-46" vertex="1" connectable="0">
          <mxGeometry x="-0.3337" relative="1" as="geometry">
            <mxPoint x="12.85" y="4.39" as="offset" />
          </mxGeometry>
        </mxCell>
        <mxCell id="RbZct2MoRm9yDM0AL2yS-41" value="Đổi mật khẩu" style="ellipse;whiteSpace=wrap;html=1;" parent="1" vertex="1">
          <mxGeometry x="320" y="75" width="100" height="65" as="geometry" />
        </mxCell>
        <mxCell id="v9m13XhCE3UVgmr0lGia-3" style="edgeStyle=none;rounded=0;orthogonalLoop=1;jettySize=auto;html=1;dashed=1;exitX=0;exitY=0.5;exitDx=0;exitDy=0;" parent="1" source="RbZct2MoRm9yDM0AL2yS-14" edge="1">
          <mxGeometry relative="1" as="geometry">
            <mxPoint x="693.3302611813219" y="76.66021165765596" as="sourcePoint" />
            <mxPoint x="546.6631306556051" y="203.33638716106816" as="targetPoint" />
          </mxGeometry>
        </mxCell>
      </root>
    </mxGraphModel>
  </diagram>
</mxfile>
